<svg xmlns="http://www.w3.org/2000/svg"  viewBox="0 0 48 48" width="144px" height="144px"><linearGradient id="u35n8XwjkFWqbiBwWWajXa" x1="1.373" x2="45.032" y1="46.032" y2="3.521" gradientUnits="userSpaceOnUse"><stop offset=".002" stop-color="#9c55d4"/><stop offset=".003" stop-color="#eb40ef"/><stop offset=".05" stop-color="#ea3ee7"/><stop offset=".124" stop-color="#e638d0"/><stop offset=".217" stop-color="#df2eaa"/><stop offset=".324" stop-color="#d72076"/><stop offset=".442" stop-color="#cc0e34"/><stop offset=".527" stop-color="#c30000"/><stop offset=".581" stop-color="#cc0e33"/><stop offset=".647" stop-color="#d51d6c"/><stop offset=".711" stop-color="#dd299b"/><stop offset=".772" stop-color="#e333bf"/><stop offset=".829" stop-color="#e73ada"/><stop offset=".879" stop-color="#ea3fe9"/><stop offset=".919" stop-color="#eb40ef"/></linearGradient><path fill="url(#u35n8XwjkFWqbiBwWWajXa)" d="M40,6H8C6.895,6,6,6.895,6,8v32c0,1.105,0.895,2,2,2h32c1.105,0,2-0.895,2-2V8	C42,6.895,41.105,6,40,6z"/><g opacity=".05"><polygon points="33,14.5 15,14.5 14.5,14.5 14.5,15 14.5,33.5 17.5,33.5 17.5,17.5 33,17.5 33.5,17.5 33.5,17 33.5,15 33.5,14.5"/><polygon points="18.5,18.5 18.5,33.5 21.5,33.5 21.5,21.5 33.5,21.5 33.5,18.5"/><polygon points="22.5,22.5 22.5,33.5 25.5,33.5 25.5,25.5 33.5,25.5 33.5,22.5"/></g><polygon points="14,14 14,34 26,34 26,26 34,26 34,14" opacity=".05"/><polygon fill="#fff" points="33,15 15,15 15,33 17,33 17,17 33,17"/><polygon fill="#fff" points="33,19 19,19 19,33 21,33 21,21 33,21"/><polygon fill="#fff" points="33,23 23,23 23,33 25,33 25,25 33,25"/></svg>