<?xml version="1.0" encoding="UTF-8"?>
<svg version="1.1" xmlns="http://www.w3.org/2000/svg" width="288" height="288">
<path d="M0 0 C95.04 0 190.08 0 288 0 C288 95.04 288 190.08 288 288 C192.96 288 97.92 288 0 288 C0 192.96 0 97.92 0 0 Z " fill="#100F13" transform="translate(0,0)"/>
<path d="M0 0 C0.75295349 0.00465271 1.50590698 0.00930542 2.28167725 0.01409912 C37.76411628 0.27160785 66.6756941 13.77452927 91.74609375 38.8046875 C108.9262753 56.96744443 118.9320316 80.86052413 122.3125 105.375 C122.40748779 106.05691406 122.50247559 106.73882812 122.6003418 107.44140625 C124.96171011 125.1401241 121.61416619 141.16833523 117.3125 158.375 C41.4125 158.375 -34.4875 158.375 -112.6875 158.375 C-113.0175 155.405 -113.3475 152.435 -113.6875 149.375 C-112.37166396 149.37280016 -112.37166396 149.37280016 -111.02924538 149.37055588 C-89.66192668 149.33346737 -68.29476635 149.27442545 -46.92757607 149.19109726 C-36.59445569 149.15132663 -26.26141126 149.11892408 -15.92822266 149.10400391 C-6.91941237 149.09097717 2.08923067 149.06398636 11.09794676 149.02038693 C15.86584735 148.99779517 20.63354185 148.98208795 25.4015007 148.98311615 C29.89464977 148.98386411 34.38734366 148.96585887 38.88037491 148.93383217 C40.52418693 148.9253544 42.16805014 148.92356875 43.81187439 148.92919731 C53.94392156 148.95925335 62.882231 148.62477574 71.1875 142.125 C76.21014833 135.62510217 78.89585527 128.84166738 78.765625 120.59375 C76.89471452 107.30383417 66.26541796 96.06359216 56.94921875 87.1015625 C55.3125 85.375 55.3125 85.375 55.3125 83.375 C54.72984375 83.12105469 54.1471875 82.86710937 53.546875 82.60546875 C51.07800251 81.2458624 49.53435448 79.69484786 47.5625 77.6875 C35.61980261 66.9018127 18.89080188 63.54102275 3.28027344 62.82446289 C1.97985422 62.76257703 1.97985422 62.76257703 0.65316391 62.69944096 C-9.7016149 62.24014051 -20.05856161 62.14585283 -30.421875 62.05859375 C-32.52321716 62.03795178 -34.62455585 62.01695386 -36.72589111 61.99562073 C-42.18362568 61.94114594 -47.64139289 61.89141666 -53.09918213 61.84277344 C-58.69766042 61.7920038 -64.29609291 61.73661112 -69.89453125 61.68164062 C-80.82548147 61.57497547 -91.75647191 61.47333794 -102.6875 61.375 C-98.80167127 51.24691854 -91.04199059 43.1736339 -83.6875 35.375 C-83.07519531 34.69824219 -82.46289062 34.02148438 -81.83203125 33.32421875 C-68.42690328 19.06161991 -49.67217059 8.84628067 -30.83862305 3.94482422 C-29.25810907 3.52615215 -27.68767872 3.06893032 -26.12426758 2.59033203 C-17.40144018 0.08751109 -8.98588861 -0.09848023 0 0 Z " fill="#FCFCFC" transform="translate(141.6875,23.625)"/>
<path d="M0 0 C72.27 0 144.54 0 219 0 C214.49878529 13.50364413 206.5130287 23.67608214 197 34 C196.38382813 34.68707031 195.76765625 35.37414062 195.1328125 36.08203125 C181.88340497 50.15540691 164.97096189 58.69510387 147 65 C146.1646875 65.350625 145.329375 65.70125 144.46875 66.0625 C118.98534577 75.73974211 85.55321488 71.52697911 61 61 C34.37832436 48.92805668 13.7601017 27.50959493 0 2 C0 1.34 0 0.68 0 0 Z " fill="#FEFEFE" transform="translate(34,194)"/>
<path d="M0 0 C14.62194743 -0.04691239 29.24388478 -0.08208246 43.86589241 -0.10362434 C50.65655166 -0.11389657 57.44716391 -0.12787842 64.23779297 -0.15087891 C70.79951676 -0.17309329 77.3612102 -0.18459209 83.92296982 -0.18975449 C86.41780233 -0.19343027 88.91263238 -0.20060779 91.407444 -0.21146011 C133.67671184 -0.38790249 133.67671184 -0.38790249 151 15 C151.78632813 15.65613281 152.57265625 16.31226562 153.3828125 16.98828125 C158.33864749 21.23724949 162.75966053 25.80177146 167 30.75 C167.46905762 31.29285645 167.93811523 31.83571289 168.42138672 32.39501953 C171.11078198 35.61221232 172.39840016 37.9960004 174 42 C113.94 42 53.88 42 -8 42 C-8 38.04 -8 34.08 -8 30 C24.01 30 56.02 30 89 30 C89 25.71 89 21.42 89 17 C57.98 17 26.96 17 -5 17 C-3.59697129 10.68637082 -2.32344464 5.80861159 0 0 Z " fill="#FBFBFB" transform="translate(32,97)"/>
<path d="M0 0 C60.72 0 121.44 0 184 0 C181.87969498 5.30076254 180.03294222 7.48352889 175 10 C172.70687647 10.09471334 170.4108923 10.1218962 168.11581421 10.12025452 C167.3994837 10.12110894 166.68315318 10.12196337 165.94511569 10.12284368 C163.53288411 10.12449732 161.12072132 10.11897901 158.70849609 10.11352539 C156.9840851 10.11324347 155.25967399 10.11340135 153.53526306 10.1139679 C148.84337192 10.11425567 144.15150617 10.10836213 139.45962095 10.10139394 C134.56020962 10.09515711 129.66079775 10.09455634 124.76138306 10.09336853 C115.478919 10.09025619 106.19646667 10.0820441 96.91400778 10.07201904 C86.34826317 10.0608549 75.78251802 10.05534669 65.21676898 10.05032361 C43.47783943 10.03986142 21.73892045 10.02226384 0 10 C0 6.7 0 3.4 0 0 Z " fill="#F4F4F4" transform="translate(24,151)"/>
<path d="M0 0 C31.02 0 62.04 0 94 0 C94 4.29 94 8.58 94 13 C61.99 13 29.98 13 -3 13 C0.40392231 9.59607769 1.59540077 9.6512023 6.21170044 9.6267395 C7.06118256 9.63752533 7.91066467 9.64831116 8.78588867 9.65942383 C9.68365524 9.65898575 10.58142181 9.65854767 11.50639343 9.65809631 C14.47713891 9.66018821 17.44732172 9.68353824 20.41796875 9.70703125 C22.47634065 9.71262578 24.53471655 9.71689655 26.59309387 9.71989441 C32.01340748 9.73135445 37.43348032 9.76083171 42.85369873 9.79400635 C48.38355248 9.8246822 53.91344509 9.83839444 59.44335938 9.85351562 C70.29567876 9.8857002 81.14781937 9.93691064 92 10 C92 7.03 92 4.06 92 1 C61.64 1 31.28 1 0 1 C0 0.67 0 0.34 0 0 Z " fill="#434344" transform="translate(27,114)"/>
<path d="M0 0 C71.94 0 143.88 0 218 0 C218 0.33 218 0.66 218 1 C216.91201772 1.00423194 215.82403543 1.00846388 214.70308399 1.01282406 C188.24701704 1.11595418 161.7909777 1.22469449 135.33495808 1.33933926 C122.54110441 1.39464998 109.74724795 1.44812848 96.95336914 1.49731445 C85.80403848 1.5401826 74.65472817 1.58646729 63.50542897 1.63687855 C57.60035448 1.66345824 51.69528397 1.68831084 45.79018593 1.70907402 C40.23431434 1.7286632 34.67848143 1.7528139 29.12264442 1.78049088 C27.08164167 1.7898492 25.04063043 1.79752886 22.99961472 1.80341911 C20.21623818 1.81170095 17.43295497 1.82598355 14.64961243 1.84178162 C13.8392956 1.84275972 13.02897876 1.84373783 12.19410688 1.84474558 C8.34181586 1.87292324 4.74504855 2.06323796 1 3 C0.67 2.01 0.34 1.02 0 0 Z " fill="#EAEAEA" transform="translate(34,194)"/>
<path d="M0 0 C3.33333333 1.33333333 6.66666667 2.66666667 10 4 C10 4.66 10 5.32 10 6 C5.23649415 5.28547412 0.65798604 4.20465156 -4 3 C-2.68 2.67 -1.36 2.34 0 2 C0 1.34 0 0.68 0 0 Z " fill="#262627" transform="translate(174,24)"/>
</svg>
